PathFileType  4	(X/Y/Z) C:\Users\antoi\Documents\MyRepositories\mobilecap\ResultsAnalysis
DataRate	CameraRate	NumFrames	NumMarkers	Units	OrigDataRate	OrigDataStartFrame	OrigNumFrames
100.0	100.0	4	51	mm	100.0	1	253
Frame#	Time	r_knee			r_shank_antsup			r_ankle			r_calc			r_5meta			r_toe			L_knee			L_shank_antsup			L_ankle			L_calc			L_5meta			L_toe			r_sh2			r_sh3			r_sh4			L_sh2			L_sh3			r_thigh1			r_thigh2			r_thigh3			r_thigh4			r_thigh5			L_thigh1			L_thigh2			L_thigh3			L_thigh4			r.ASIS			r.PSIS			L.ASIS			L.PSIS			C7			R_Shoulder			L_Shoulder			R_Sternum			L_Sternum			R_humerus			R_elbow_med			R_elbow_lat			R_forearm			R_wrist_radius			R_wrist_ulna			L_humerus			L_elbow_med			L_elbow_lat			L_forearm			L_wrist_radius			L_wrist_ulna			R_HJC			L_HJC			R_HJC_reg			L_HJC_reg			
		X1	Y1	Z1	X2	Y2	Z2	X3	Y3	Z3	X4	Y4	Z4	X5	Y5	Z5	X6	Y6	Z6	X7	Y7	Z7	X8	Y8	Z8	X9	Y9	Z9	X10	Y10	Z10	X11	Y11	Z11	X12	Y12	Z12	X13	Y13	Z13	X14	Y14	Z14	X15	Y15	Z15	X16	Y16	Z16	X17	Y17	Z17	X18	Y18	Z18	X19	Y19	Z19	X20	Y20	Z20	X21	Y21	Z21	X22	Y22	Z22	X23	Y23	Z23	X24	Y24	Z24	X25	Y25	Z25	X26	Y26	Z26	X27	Y27	Z27	X28	Y28	Z28	X29	Y29	Z29	X30	Y30	Z30	X31	Y31	Z31	X32	Y32	Z32	X33	Y33	Z33	X34	Y34	Z34	X35	Y35	Z35	X36	Y36	Z36	X37	Y37	Z37	X38	Y38	Z38	X39	Y39	Z39	X40	Y40	Z40	X41	Y41	Z41	X42	Y42	Z42	X43	Y43	Z43	X44	Y44	Z44	X45	Y45	Z45	X46	Y46	Z46	X47	Y47	Z47	X48	Y48	Z48	X49	Y49	Z49	X50	Y50	Z50	X51	Y51	Z51	

1	0.00000000	-1132.27536	773.93037	-436.11788	-1130.64009	702.14804	-414.48364	-1174.55482	399.33898	-462.54798	-1243.02184	363.89852	-498.22065	-1071.12475	352.48023	-434.96167	-1029.37770	372.07513	-491.95869	-1146.25757	769.55450	-713.33039	-1128.40698	710.20323	-720.51031	-1175.10413	402.84377	-711.69037	-1243.46851	366.11536	-664.13906	-1083.23585	350.59799	-740.90027	-1032.54773	372.89348	-687.26377	-1140.22168	590.22694	-414.54776	-1205.23884	706.38705	-425.04448	-1221.66364	591.11023	-428.92862	-1215.92613	722.11637	-739.35528	-1217.19525	600.05157	-745.85675	-1023.89618	1076.88722	-441.30763	-1027.41760	964.27973	-434.88953	-1078.88891	944.59160	-395.27327	-1119.59099	1082.70911	-381.97356	-1131.46122	967.01315	-393.48431	-1036.09637	1041.85402	-734.78457	-1053.63758	904.94642	-727.89235	-1150.90542	1054.45557	-762.23325	-1160.39430	914.13641	-744.06973	-1028.23016	1229.45860	-447.16849	-1212.84549	1243.67348	-523.48396	-1021.38618	1219.08642	-706.44537	-1211.49247	1234.63867	-633.45249	-1191.09338	1703.61974	-575.07160	-1129.45763	1650.79347	-419.28674	-1120.71474	1656.48628	-741.10713	-1071.42284	1628.59580	-556.50521	-1069.93103	1626.95518	-599.09279	-1103.11514	1406.73300	-352.76910	-1127.32918	1303.91882	-417.23331	-1127.73430	1319.67419	-346.58744	-1063.89049	1216.54658	-321.65201	-1019.68993	1104.87436	-315.75010	-1061.48861	1091.29041	-315.28405	-1078.93205	1524.99939	-788.58826	-1109.53325	1310.59467	-731.60397	-1112.80160	1317.02954	-793.52911	-1049.81682	1230.62627	-823.73354	-1004.37256	1112.28443	-818.54821	-1038.76664	1096.57266	-822.06706	-1093.29096	1152.65757	-473.99818	-1086.24514	1147.06089	-674.08833	-1090.33363	1149.87289	-478.22079	-1088.23301	1135.84594	-648.95184	
2	0.01000000	-1132.26508	773.92285	-436.13105	-1130.55323	702.09928	-414.44741	-1174.56709	399.33885	-462.53653	-1243.04978	363.85380	-498.27862	-1071.07277	352.52074	-434.93130	-1029.41748	372.14951	-491.95816	-1146.31992	769.51126	-713.29390	-1128.43993	710.19733	-720.52438	-1175.12331	402.84492	-711.69386	-1243.48807	366.06164	-664.03917	-1083.25488	350.61020	-740.90544	-1032.63589	372.90159	-687.27184	-1140.23309	590.22915	-414.54672	-1205.18879	706.41508	-425.13576	-1221.92466	591.26087	-429.26883	-1215.94322	722.12711	-739.35860	-1217.23321	600.02878	-745.86487	-1023.90268	1076.89618	-441.31157	-1027.42648	964.28254	-434.88977	-1078.91351	944.59452	-395.30296	-1119.61980	1082.69405	-381.96470	-1131.44894	967.09330	-393.47568	-1036.05157	1041.86350	-734.74616	-1053.63630	904.93964	-727.92716	-1150.93872	1054.42951	-762.30222	-1160.41562	914.11476	-744.07751	-1028.10924	1229.36405	-447.15878	-1212.87128	1243.66647	-523.49723	-1021.41106	1219.03581	-706.48674	-1211.53143	1234.66053	-633.44301	-1190.76416	1703.62573	-574.79199	-1129.39292	1650.73693	-419.29194	-1120.31550	1656.75385	-741.88044	-1071.27316	1628.54834	-556.52563	-1069.71047	1627.02132	-599.08725	-1102.89431	1406.76001	-352.75179	-1127.31980	1303.91285	-417.21998	-1127.50798	1319.59130	-346.60953	-1063.51197	1216.48607	-321.62486	-1019.49716	1104.85069	-315.80858	-1061.26740	1091.21898	-315.39981	-1078.80398	1525.08438	-788.65045	-1109.65614	1310.75720	-732.44729	-1112.67004	1317.05455	-793.48027	-1049.64257	1230.68418	-823.79846	-1004.04962	1112.40974	-818.61254	-1038.54340	1096.66959	-822.28386	-1093.28473	1152.59625	-474.02861	-1086.29861	1147.03302	-674.12178	-1090.32149	1149.78587	-478.23341	-1088.24047	1135.79810	-648.99802	
3	0.02000000	-1132.24299	773.89931	-436.12389	-1130.51847	702.07554	-414.45305	-1174.58018	399.34658	-462.51980	-1243.05428	363.85716	-498.27202	-1071.10219	352.51864	-434.94584	-1029.46423	372.20963	-491.98794	-1146.40144	769.47007	-713.25061	-1128.47707	710.17590	-720.54511	-1175.16935	402.82411	-711.68881	-1243.52162	366.03376	-664.02023	-1083.27274	350.63075	-740.90421	-1032.71610	372.90248	-687.26350	-1140.25519	590.15856	-414.60686	-1205.24607	706.32280	-425.30647	-1221.76490	591.87868	-429.31801	-1215.97417	722.10254	-739.32509	-1217.29439	600.08233	-745.77957	-1023.89424	1076.90337	-441.32434	-1027.43811	964.27570	-434.89656	-1078.89085	944.59418	-395.29173	-1119.62662	1082.68179	-381.93851	-1131.42873	967.09506	-393.49700	-1036.14963	1041.87507	-734.92523	-1053.66332	904.92170	-727.92559	-1150.96873	1054.40693	-762.35025	-1160.43096	914.10464	-744.10418	-1028.12928	1229.30604	-447.19967	-1212.87269	1243.70829	-523.54685	-1021.41554	1219.01122	-706.51910	-1211.56031	1234.66874	-633.45053	-1190.65010	1703.72998	-574.80182	-1129.29258	1650.69951	-419.31534	-1120.11568	1656.86371	-742.12663	-1071.07232	1628.55782	-556.53091	-1069.47757	1627.03355	-599.13215	-1102.68072	1406.73670	-352.76515	-1127.18387	1303.95183	-417.25715	-1127.26343	1319.53274	-346.56652	-1063.34695	1216.46689	-321.65797	-1019.24813	1104.80098	-316.11773	-1061.03617	1091.15932	-315.43125	-1078.68921	1525.13942	-788.68380	-1109.56459	1310.87311	-732.75403	-1112.51213	1317.11013	-793.54859	-1049.45561	1230.77280	-823.91799	-1003.89916	1112.57498	-818.60869	-1038.30650	1096.78438	-822.47122	-1093.32575	1152.57219	-474.06671	-1086.34194	1147.02035	-674.16028	-1090.36934	1149.82589	-478.23681	-1088.33035	1135.78136	-648.99099	
4	0.03000000	-1132.24561	773.89883	-436.11585	-1130.48757	702.04592	-414.48797	-1174.62159	399.35421	-462.51828	-1243.07950	363.86411	-498.26638	-1071.16871	352.50409	-434.97122	-1029.51271	372.25402	-492.01749	-1146.47925	769.47345	-713.31842	-1128.51798	710.12926	-720.57325	-1175.22797	402.78919	-711.68493	-1243.56031	366.01298	-664.02559	-1083.28725	350.64745	-740.90160	-1032.75582	372.92916	-687.25398	-1140.27173	590.04653	-414.70936	-1205.28481	706.22089	-425.43743	-1221.54165	592.29083	-429.23613	-1216.02497	722.04392	-739.25472	-1217.37611	600.13260	-745.68275	-1023.90157	1076.89265	-441.31644	-1027.45197	964.26504	-434.90858	-1078.83840	944.58322	-395.27042	-1119.65501	1082.69355	-381.90060	-1131.43687	967.02912	-393.53630	-1036.32161	1041.87851	-735.22418	-1053.71244	904.88955	-727.88286	-1151.00403	1054.37958	-762.41007	-1160.44480	914.11646	-744.21041	-1028.16970	1229.30829	-447.23360	-1212.90031	1243.74738	-523.57255	-1021.41618	1219.00206	-706.54388	-1211.58851	1234.67127	-633.48036	-1190.57201	1703.79604	-574.83170	-1129.14166	1650.70204	-419.36383	-1120.01368	1656.88079	-742.04306	-1070.81356	1628.60730	-556.52344	-1069.22290	1627.02653	-599.19948	-1102.47072	1406.68726	-352.80915	-1126.99392	1304.01969	-417.33035	-1127.01245	1319.49891	-346.46506	-1063.20019	1216.44252	-321.75162	-1018.95057	1104.76071	-316.46504	-1060.79130	1090.99299	-315.73463	-1078.58023	1525.17125	-788.70180	-1109.41183	1310.98641	-732.85819	-1112.30794	1317.21521	-793.78654	-1049.24613	1230.88161	-824.07316	-1003.85987	1112.75797	-818.65302	-1038.04865	1096.90854	-822.71217	-1093.36637	1152.58598	-474.08738	-1086.37024	1147.01747	-674.18006	-1090.41835	1149.87814	-478.24626	-1088.38044	1135.77819	-648.99085	
